# 3ds Max Wavefront OBJ Exporter v0.97b - (c)2007 guruware
# File Created: 14.12.2019 16:26:20

#
# object Plane001
#

v  93.5000 0.0000 -0.0000
v  -3.5000 0.0000 0.0000
v  -3.5000 0.0000 194.0000
v  93.5000 0.0000 194.0000
v  3.5000 0.0000 0.0000
v  3.5000 0.0000 90.0000
v  3.5000 10.0000 90.0000
v  3.5000 10.0000 0.0000
v  -3.5000 0.0000 97.0000
v  -3.5000 10.0000 0.0000
v  -3.5000 10.0000 97.0000
v  86.5000 0.0000 97.0000
v  -3.5000 -0.0000 97.0000
v  86.5000 10.0000 97.0000
v  93.5000 0.0000 90.0000
v  93.5000 10.0000 90.0000
v  86.5000 0.0000 187.0000
v  86.5000 10.0000 187.0000
v  93.5000 10.0000 194.0000
v  -3.5000 0.0000 187.0000
v  86.5000 -0.0000 187.0000
v  -3.5000 10.0000 187.0000
v  -3.5000 10.0000 194.0000
# 23 vertices

vn 0.0000 1.0000 -0.0000
vn -1.0000 0.0000 -0.0000
vn 1.0000 0.0000 0.0000
vn -0.0000 -0.0000 -1.0000
vn 0.0000 -0.0000 1.0000
vn 0.0000 0.0000 1.0000
vn 1.0000 0.0000 -0.0000
vn -0.0000 0.0000 -1.0000
# 8 vertex normals

vt 0.0000 0.0000 0.0000
vt 1.0000 0.0000 0.0000
vt 0.0000 1.0000 0.0000
vt 1.0000 1.0000 0.0000
vt 0.0000 0.0000 0.0000
vt 1.0000 0.0000 0.0000
vt 0.0000 1.0000 0.0000
vt 1.0000 1.0000 0.0000
vt 0.0000 0.0000 0.0000
vt 1.0000 0.0000 0.0000
vt 0.0000 1.0000 0.0000
vt 1.0000 1.0000 0.0000
vt 0.0000 0.0000 0.0000
vt 1.0000 0.0000 0.0000
vt 0.0000 1.0000 0.0000
vt 1.0000 1.0000 0.0000
vt 0.0000 0.0000 0.0000
vt 1.0000 0.0000 0.0000
vt 0.0000 1.0000 0.0000
vt 1.0000 1.0000 0.0000
vt 0.0000 0.0000 0.0000
vt 1.0000 0.0000 0.0000
vt 0.0000 1.0000 0.0000
vt 1.0000 1.0000 0.0000
vt 0.0000 0.0000 0.0000
vt 1.0000 0.0000 0.0000
vt 0.0000 1.0000 0.0000
vt 1.0000 1.0000 0.0000
vt 0.0000 0.0000 0.0000
vt 1.0000 0.0000 0.0000
vt 0.0000 1.0000 0.0000
vt 1.0000 1.0000 0.0000
vt 0.0000 0.0000 0.0000
vt 1.0000 0.0000 0.0000
vt 0.0000 1.0000 0.0000
vt 1.0000 1.0000 0.0000
vt 0.0000 0.0000 0.0000
vt 1.0000 0.0000 0.0000
vt 0.0000 1.0000 0.0000
vt 1.0000 1.0000 0.0000
vt 0.0000 0.0000 0.0000
vt 1.0000 0.0000 0.0000
vt 0.0000 1.0000 0.0000
vt 1.0000 1.0000 0.0000
# 44 texture coords

o Plane001
g Plane001
f 1/1/1 2/2/1 3/4/1 
f 3/4/1 4/3/1 1/1/1 
f 5/5/2 6/6/2 7/8/2 
f 7/8/2 8/7/2 5/5/2 
f 9/9/3 2/10/3 10/12/3 
f 10/12/3 11/11/3 9/9/3 
f 12/13/4 13/14/4 11/16/4 
f 11/16/4 14/15/4 12/13/4 
f 6/17/5 15/18/5 16/20/5 
f 16/20/5 7/19/5 6/17/5 
f 2/21/6 5/22/6 8/24/6 
f 8/24/6 10/23/6 2/21/6 
f 17/25/7 12/26/7 14/28/7 
f 14/28/7 18/27/7 17/25/7 
f 15/29/2 4/30/2 19/32/2 
f 19/32/2 16/31/2 15/29/2 
f 20/33/5 21/34/5 18/36/5 
f 18/36/5 22/35/5 20/33/5 
f 4/37/8 3/38/8 23/40/8 
f 23/40/8 19/39/8 4/37/8 
f 3/41/7 20/42/7 22/44/7 
f 22/44/7 23/43/7 3/41/7 
# 22 faces

