# 3ds Max Wavefront OBJ Exporter v0.97b - (c)2007 guruware
# File Created: 14.12.2019 14:56:19

#
# object Plane001
#

v  -25.0000 0.0000 -50.0000
v  -25.0000 0.0000 -0.0000
v  25.0000 0.0000 -50.0000
v  25.0000 0.0000 -0.0000
# 4 vertices

vn 0.0000 1.0000 -0.0000
# 1 vertex normals

vt 0.0000 0.0000 0.0000
vt 1.0000 0.0000 0.0000
vt 0.0000 0.0000 0.0000
vt 1.0000 0.0000 0.0000
vt 0.0000 0.0000 0.0000
vt 1.0000 0.0000 0.0000
vt 0.0000 1.0000 0.0000
vt 1.0000 1.0000 0.0000
# 8 texture coords

o Plane001
g Plane001
s 1
f 1/7/1 2/5/1 3/8/1 
f 4/6/1 3/8/1 2/5/1 
# 2 faces

#
# object Plane002
#

v  -3.5000 10.0000 -0.0000
v  -3.5000 0.0000 -0.0000
v  -3.5000 10.0000 -50.0000
v  -3.5000 0.0000 -50.0000
# 4 vertices

vn 1.0000 -0.0000 0.0000
# 1 vertex normals

vt 0.0000 0.0000 0.0000
vt 1.0000 0.0000 0.0000
vt 0.0000 0.0000 0.0000
vt 1.0000 0.0000 0.0000
vt 0.0000 0.0000 0.0000
vt 1.0000 0.0000 0.0000
vt 0.0000 1.0000 0.0000
vt 1.0000 1.0000 0.0000
# 8 texture coords

o Plane002
g Plane002
s 1
f 5/15/2 6/13/2 7/16/2 
f 8/14/2 7/16/2 6/13/2 
# 2 faces

#
# object Plane003
#

v  3.5000 10.0000 -50.0000
v  3.5000 0.0000 -50.0000
v  3.5000 10.0000 -0.0000
v  3.5000 0.0000 -0.0000
# 4 vertices

vn -1.0000 -0.0000 -0.0000
# 1 vertex normals

vt 0.0000 0.0000 0.0000
vt 1.0000 0.0000 0.0000
vt 0.0000 0.0000 0.0000
vt 1.0000 0.0000 0.0000
vt 0.0000 0.0000 0.0000
vt 1.0000 0.0000 0.0000
vt 0.0000 1.0000 0.0000
vt 1.0000 1.0000 0.0000
# 8 texture coords

o Plane003
g Plane003
s 1
f 9/23/3 10/21/3 11/24/3 
f 12/22/3 11/24/3 10/21/3 
# 2 faces

